<?xml version="1.0" encoding="utf-8"?>
<!-- Generator: Adobe Illustrator 21.1.0, SVG Export Plug-In . SVG Version: 6.00 Build 0)  -->
<svg version="1.1" id="Layer_1" xmlns="http://www.w3.org/2000/svg" xmlns:xlink="http://www.w3.org/1999/xlink" x="0px" y="0px"
	 viewBox="0 0 1048.8 252" style="enable-background:new 0 0 1048.8 252;" xml:space="preserve">
<style type="text/css">
	.st0{fill:#98C21F;}
	.st1{fill:#FFFFFF;}
	.st2{fill:#E07926;stroke:#E07926;stroke-miterlimit:10;}
</style>
<g>
	<g>
		<g>
			<g>
				<path class="st0" d="M632.4,22.6c9-1.8,25-3.1,42-3.1c20.8,0,33.6,2,44.5,8.5c10.5,5.6,18.1,15.9,18.1,29.5
					c0,13.4-7.8,26-24.8,32.2v0.4c17.2,4.7,30,17.7,30,37.2c0,13.7-6.3,24.4-15.7,32c-11,8.7-29.3,13.7-59.3,13.7
					c-16.6,0-27-1.1-34.6-2.2c-0.1,0-0.2-0.1-0.2-0.2V22.6z M664.1,71.6c0,4.8,3.9,8.7,8.7,8.7h2.5c17.9,0,27.5-7.4,27.5-18.6
					c0-11.4-8.7-17.5-24.2-17.5c-2.4,0-4.4,0-6.2,0.1c-4.7,0.2-8.4,4-8.4,8.7V71.6z M664.1,138.9c0,4.8,3.8,8.7,8.6,8.7
					c1.4,0,2.9,0,4.6,0c15.4,0,29.1-5.8,29.1-21.7c0-15.2-13.7-21.3-30.7-21.3h-2.9c-4.8,0-8.7,3.9-8.7,8.7V138.9z"/>
			</g>
			<path class="st1" d="M408.6,170.9l-32.2,0c-2.1,0-3.9-2.8-3.9-8.1v-13.5v-0.5v-45.2V54.9c0-0.9-0.1-1.8-0.3-2.6h1.4h30.3
				c1.3,0,3.7,2.4,3.7,6.3v97.7C407.6,157.3,407.3,165,408.6,170.9"/>
			<path class="st0" d="M791.3,170.9l-32.2,0c-2.1,0-3.9-2.8-3.9-8.1v-13.5v-0.5v-45.2V54.9c0-0.9-0.1-1.8-0.3-2.6h1.4h30.3
				c1.3,0,3.7,2.4,3.7,6.3v97.7C790.2,157.3,789.9,165,791.3,170.9"/>
			<path class="st1" d="M613,171.5v-69.9c0-16.1-3.5-29.1-10.2-37.6c-6.5-8.2-15.9-12.4-27.9-12.4c-7.5,0-14.3,1.5-20.2,4.6
				c-5.6,2.8-10.7,7.2-15.8,13.5c-0.8,1.1-2.3,2.2-4.4,2.2h-0.4c-2.4-0.2-3.9-1.8-4.5-3.5c-4.7-10.7-15.5-16.9-29.6-16.9
				c-13.9,0-25.1,5.6-33.4,16.6l-0.1,0.1l-0.1,0.1c-1,1.2-3,3.1-5.4,3.1c-1.7,0-3.7-1-4.4-3.8c-0.5-2.3-0.6-8.9-0.5-13.6
				c0-0.4,0-0.9,0-1.3h-30.3l0.3,118.9l35.7,0v-68v-0.4c0-3.2,0-7.1,1.7-10.7c3.5-8.7,10.4-13.7,19-13.7c6.6,0,12.2,3.3,15.5,8.9
				c2.8,4.8,4.2,11.3,4.2,19.6v64.2h35.1v-67.6c0-4.7,0.6-8.4,1.6-10.9c3-8.8,10.2-14.3,18.9-14.3h0.2c6.7,0,12.3,3.3,15.6,9
				c2.9,5,4.3,11.8,4.3,20.8v62.9L613,171.5z"/>
			<path class="st0" d="M862,172.4c-36.3,0-60.6-23.7-60.6-58.9c0-37.2,24.2-60.4,63.1-60.4c35.5,0,59.4,23.5,59.4,58.4
				C923.9,156.5,890.6,172.4,862,172.4 M863,77.8c-14.1,0-22.5,13.1-22.5,35c0,21.9,8.5,35,22.7,35c13.5,0,21.5-13.1,21.5-35
				C884.8,91.2,876.4,77.8,863,77.8"/>
			<g>
				<path class="st1" d="M306.6,171.1c-13.9,0-26.7-3.7-37.9-10.9l-1.1-0.7l10.8-26.3l1.6,1.1c10,7,19.9,10.5,29.4,10.5
					c14.4,0,21.4-4.7,21.4-14.5c0-4.6-1.7-9.1-5.1-13.3c-3.4-4.3-10.8-9.3-21.7-14.8c-11.5-5.8-19-10.4-23.1-14.2
					c-4-3.8-7.2-8.3-9.4-13.5c-2.2-5.2-3.3-11-3.3-17.2c0-11.8,4.4-21.6,13-29.4c8.6-7.7,19.7-11.6,33-11.6
					c17.2,0,30.1,3.3,38.3,9.9l0.9,0.7l-9,25.4l-1.7-1.2c-8.8-6.3-18.3-9.5-28-9.5c-5.6,0-9.9,1.5-12.9,4.3c-3,2.9-4.5,6.6-4.5,11.2
					c0,7.7,9.1,16.1,27,24.8c9.9,4.9,17.2,9.4,21.6,13.5c4.5,4.2,7.9,9.1,10.3,14.6c2.3,5.5,3.5,11.8,3.5,18.6
					c0,12.3-4.9,22.6-14.6,30.5C335.6,167.1,322.6,171.1,306.6,171.1z"/>
				<path class="st1" d="M314.3,17.9c16.9,0,29.4,3.2,37.3,9.5l-7.9,22.4c-9.1-6.5-18.8-9.8-28.9-9.8c-6,0-10.7,1.6-14,4.8
					c-3.3,3.2-5,7.3-5,12.4c0,8.4,9.3,17.1,27.9,26.2c9.8,4.8,16.9,9.2,21.2,13.3c4.3,4,7.6,8.7,9.9,14.1c2.3,5.4,3.4,11.4,3.4,18
					c0,11.9-4.7,21.7-14.1,29.3c-9.4,7.7-21.9,11.5-37.7,11.5c-13.7,0-26-3.5-37-10.6l9.6-23.3c10.3,7.2,20.4,10.8,30.3,10.8
					c15.3,0,22.9-5.3,22.9-16c0-5-1.8-9.8-5.4-14.3c-3.6-4.5-11-9.6-22.3-15.3c-11.2-5.6-18.8-10.3-22.7-13.9c-3.9-3.6-6.9-8-9-13
					c-2.1-5-3.2-10.5-3.2-16.6c0-11.3,4.2-20.7,12.5-28.2C290.6,21.7,301.3,17.9,314.3,17.9 M314.3,14.8c-13.7,0-25.2,4-34.1,12
					c-9,8.1-13.5,18.3-13.5,30.5c0,6.5,1.1,12.5,3.4,17.8c2.3,5.4,5.5,10.1,9.8,14c4.2,3.9,11.8,8.6,23.4,14.4
					c10.8,5.4,17.9,10.3,21.2,14.4c3.2,4,4.7,8.1,4.7,12.4c0,5.5-2.1,12.9-19.8,12.9c-9.2,0-18.8-3.4-28.5-10.2l-3.2-2.2l-1.5,3.6
					l-9.6,23.3l-1,2.4l2.2,1.4c11.5,7.4,24.5,11.1,38.7,11.1c16.4,0,29.8-4.1,39.7-12.2c10.1-8.3,15.2-18.9,15.2-31.7
					c0-7-1.2-13.4-3.6-19.2c-2.4-5.8-6-10.9-10.7-15.2c-4.6-4.3-11.8-8.8-22-13.8C303.5,70,299,62,299,57.2c0-4.2,1.3-7.5,4-10.1
					c2.7-2.6,6.6-3.9,11.8-3.9c9.4,0,18.5,3.1,27.1,9.2l3.4,2.4l1.4-3.9l7.9-22.4l0.7-2.1l-1.7-1.4
					C345.1,18.2,331.9,14.8,314.3,14.8L314.3,14.8z"/>
			</g>
		</g>
	</g>
	<g>
		<g>
			<path class="st1" d="M218.6,246.3c-49.5,0-99,0-148.5,0c-8.4-4.7-10.8-11.9-10.8-21.4c0.3-57.7,0.1-115.4,0.1-173.1
				c0-16,5.1-21.1,21-21.1c13.1,0,26.3,0,39.5,0c0.7-12.7,7.9-19.6,18.3-24c4,0,8,0,12,0c10.6,4.5,17.8,11.7,18.4,24
				c13.9,0,27.3,0,40.6,0c14.3,0,19.8,5.5,19.8,19.9c0,58.1-0.1,116.2,0.1,174.3C229.4,234.4,227,241.6,218.6,246.3z M202.9,69.1
				c0-5.2,0.3-9.8-0.1-14.3c-0.6-7.2-5.8-12-13-12.2c-5-0.1-10,0-14.9,0c-8.5,0-12.8-3.9-13.7-12.2c-1.1-9.9-8-16.6-17.1-16.4
				c-8.9,0.1-15.6,6.7-16.6,16.3c-0.9,8.4-5.2,12.3-13.5,12.3c-5,0-10-0.1-14.9,0c-6.8,0.2-12.1,4.3-12.9,10.8
				c-0.6,5-0.1,10.2-0.1,15.6C125.1,69.1,163.5,69.1,202.9,69.1z M205.2,94.7c-32.9,0-65.3,0-97.7,0c0,2.8,0,5.1,0,7.7
				c32.7,0,65.1,0,97.7,0C205.2,99.7,205.2,97.4,205.2,94.7z M205.2,131.8c-32.9,0-65.3,0-97.8,0c0,2.7,0,5.1,0,7.7
				c32.7,0,65.1,0,97.8,0C205.2,136.8,205.2,134.5,205.2,131.8z M205.2,168.9c-32.9,0-65.3,0-97.8,0c0,2.7,0,5.1,0,7.7
				c32.7,0,65.1,0,97.8,0C205.2,174,205.2,171.6,205.2,168.9z M205.2,206c-32.5,0-65.1,0-97.5,0c0,2.8,0,5.2,0,7.7
				c32.7,0,65,0,97.5,0C205.2,211.1,205.2,208.8,205.2,206z M95.2,94.6c-4.1,0-7.7,0-11.6,0c0,2.8,0,5.2,0,7.8c4,0,7.7,0,11.6,0
				C95.2,99.8,95.2,97.5,95.2,94.6z M95.1,139.6c0-3,0-5.5,0-7.9c-4.1,0-7.8,0-11.4,0c0,2.8,0,5.3,0,7.9
				C87.6,139.6,91.1,139.6,95.1,139.6z M83.5,176.4c4.1,0,7.9,0,11.6,0c0-2.8,0-5.1,0-7.7c-4,0-7.7,0-11.6,0
				C83.5,171.3,83.5,173.6,83.5,176.4z M83.5,213.6c4.1,0,7.9,0,11.7,0c0-2.8,0-5.1,0-7.5c-4.1,0-8,0-11.7,0
				C83.5,208.8,83.5,211.1,83.5,213.6z"/>
		</g>
	</g>
	<g>
		<path class="st2" d="M284.1,225.8v-3.6h19v22.9h-3.6v-7.6c-0.8,1.3-1.7,2.5-2.7,3.6c-1,1.1-2.2,2-3.5,2.8
			c-1.3,0.8-2.8,1.3-4.6,1.8c-1.7,0.4-3.7,0.6-5.9,0.6c-2.8,0-5.4-0.5-7.8-1.5c-2.4-1-4.4-2.5-6.2-4.4c-1.7-2-3.1-4.4-4-7.4
			c-1-3-1.4-6.4-1.4-10.4c0-3.2,0.4-6.3,1.2-9.1c0.8-2.8,2.1-5.3,3.8-7.3c1.7-2.1,3.8-3.7,6.4-4.9c2.6-1.2,5.6-1.8,9.1-1.8
			c2.3,0,4.5,0.3,6.6,0.9c2,0.6,3.9,1.4,5.5,2.6c1.6,1.2,3,2.6,4.1,4.4c1.1,1.7,1.9,3.8,2.4,6.2h-4.3c-0.4-1.6-1-3.1-1.9-4.4
			c-0.9-1.3-1.9-2.4-3.2-3.3c-1.2-0.9-2.6-1.6-4.1-2c-1.5-0.5-3.1-0.7-4.7-0.7c-2.9,0-5.4,0.5-7.5,1.5c-2.1,1-3.8,2.5-5.2,4.3
			c-1.4,1.9-2.4,4.1-3,6.7c-0.6,2.6-1,5.5-1,8.6c0,2.5,0.4,4.8,1.1,7c0.7,2.2,1.8,4.2,3.1,5.9c1.4,1.7,3.1,3,5.1,4
			c2,1,4.3,1.5,6.8,1.5c1.2,0,2.4-0.1,3.7-0.4c1.3-0.3,2.5-0.7,3.7-1.3c1.2-0.6,2.3-1.4,3.3-2.4c1-1,1.9-2.2,2.7-3.6
			c0.7-1.4,1.2-2.9,1.4-4.4c0.3-1.5,0.4-3.1,0.5-4.8H284.1z"/>
		<path class="st2" d="M317.3,225v20.2l-4.2-0.1v-44.3h17.4c4.9,0,8.6,0.9,11.2,2.7c2.6,1.8,3.9,4.8,3.9,8.9c0,2.8-0.6,5-1.7,6.7
			c-1.1,1.6-3,3-5.5,4.2c1.3,0.5,2.3,1.1,3.1,2c0.7,0.9,1.3,1.9,1.7,3c0.4,1.1,0.6,2.3,0.7,3.5c0.1,1.2,0.2,2.4,0.2,3.6
			c0,1.7,0.1,3.1,0.2,4.2c0.1,1.1,0.2,2,0.4,2.7c0.1,0.7,0.3,1.2,0.5,1.6c0.2,0.4,0.5,0.7,0.7,0.9v0.4l-4.6,0.1
			c-0.5-0.7-0.8-1.8-1-3.1c-0.2-1.3-0.3-2.7-0.4-4.1c-0.1-1.4-0.2-2.8-0.2-4.2c-0.1-1.4-0.2-2.5-0.3-3.3c-0.2-1.2-0.6-2.1-1.2-2.9
			c-0.6-0.7-1.2-1.3-2-1.6c-0.8-0.4-1.7-0.6-2.6-0.7c-1-0.1-2-0.2-3-0.2H317.3z M330.4,221.4c1.6,0,3-0.2,4.3-0.5
			c1.3-0.3,2.5-0.9,3.5-1.6c1-0.7,1.8-1.6,2.3-2.7c0.6-1.1,0.9-2.4,0.9-4c0-1.6-0.3-3-0.9-4.1c-0.6-1.1-1.4-1.9-2.4-2.5
			c-1-0.6-2.2-1-3.5-1.3c-1.3-0.2-2.6-0.4-4-0.4h-13.3v17.1H330.4z"/>
		<path class="st2" d="M350.3,245.2l17.5-44.4h4.7l17,44.4h-4.3l-5.1-13.9h-20.2l-5.2,13.9H350.3z M361.2,227.7h17.4l-8.7-23.3
			L361.2,227.7z"/>
		<path class="st2" d="M395.3,245.2v-44.4h16.2c2.9,0,5.3,0.3,7.1,1c1.9,0.7,3.3,1.6,4.4,2.7c1.1,1.2,1.9,2.5,2.3,4
			c0.4,1.5,0.6,3.1,0.6,4.7c0,2.5-0.5,4.5-1.5,6.1c-1,1.6-2.3,2.9-3.9,3.8c-1.6,0.9-3.4,1.6-5.5,1.9s-4.1,0.6-6.1,0.6h-9.5v19.6
			H395.3z M409.1,222c2,0,3.7-0.1,5.3-0.4c1.6-0.2,2.9-0.7,4-1.4c1.1-0.7,1.9-1.6,2.5-2.8c0.6-1.2,0.9-2.7,0.9-4.6
			c0-2.8-0.9-4.9-2.7-6.4c-1.8-1.4-4.7-2.2-8.7-2.2h-10.9V222H409.1z"/>
		<path class="st2" d="M433.1,245.2v-44.4h4.2v19.1h26.3v-19.1h4.2v44.4h-4.2v-21.8h-26.3v21.8H433.1z"/>
		<path class="st2" d="M479.1,245.2v-44.4h4.2v44.4H479.1z"/>
		<path class="st2" d="M526.3,213.7c-0.9-3.8-2.5-6.5-4.8-8.1c-2.3-1.6-5.4-2.4-9.2-2.4c-2.7,0-5,0.5-6.9,1.6
			c-1.9,1.1-3.5,2.5-4.8,4.3c-1.3,1.8-2.2,3.9-2.8,6.3c-0.6,2.4-0.9,4.9-0.9,7.5c0,2.5,0.3,4.9,0.8,7.3c0.5,2.4,1.4,4.5,2.6,6.4
			c1.2,1.9,2.8,3.4,4.8,4.5c2,1.2,4.5,1.7,7.6,1.7c1.9,0,3.6-0.3,5.2-0.9c1.6-0.6,2.9-1.5,4.1-2.6c1.2-1.1,2.2-2.4,3-3.9
			c0.8-1.5,1.4-3.1,1.8-4.9h4.4c-0.5,2.1-1.2,4.2-2.2,6.1c-0.9,1.9-2.2,3.6-3.7,5c-1.5,1.4-3.4,2.6-5.6,3.4
			c-2.2,0.8-4.8,1.3-7.7,1.3c-3.4,0-6.3-0.6-8.8-1.9c-2.4-1.3-4.4-2.9-5.9-5.1c-1.5-2.1-2.7-4.6-3.4-7.4c-0.7-2.8-1-5.8-1-9
			c0-4.2,0.5-7.8,1.6-10.8c1-3,2.5-5.4,4.3-7.2c1.8-1.9,4-3.2,6.5-4.1c2.5-0.8,5.2-1.3,8.2-1.3c2.3,0,4.4,0.3,6.3,0.9
			c2,0.6,3.7,1.5,5.2,2.7c1.5,1.2,2.7,2.7,3.7,4.4c1,1.7,1.6,3.8,2,6.1H526.3z"/>
		<path class="st2" d="M541,231.9c0.2,2,0.6,3.6,1.3,5c0.7,1.4,1.6,2.5,2.8,3.4c1.1,0.9,2.4,1.5,3.9,1.9c1.5,0.4,3.1,0.6,4.7,0.6
			c2,0,3.7-0.2,5.1-0.7c1.4-0.5,2.6-1.2,3.5-2c0.9-0.8,1.6-1.8,2-2.9c0.4-1.1,0.6-2.3,0.6-3.5c0-1.7-0.4-3.1-1.2-4.2
			c-0.8-1.1-1.8-1.9-3.1-2.6c-1.3-0.7-2.7-1.2-4.3-1.6c-1.6-0.4-3.3-0.8-5-1.2c-1.7-0.4-3.4-0.9-5-1.4c-1.6-0.5-3.1-1.3-4.3-2.2
			c-1.3-0.9-2.3-2.1-3.1-3.5c-0.8-1.4-1.2-3.2-1.2-5.4c0-1.5,0.3-3,1-4.4c0.6-1.4,1.6-2.7,2.8-3.8c1.3-1.1,2.8-2,4.7-2.7
			c1.9-0.7,4.1-1,6.5-1c2.5,0,4.7,0.3,6.6,1c1.9,0.7,3.4,1.7,4.7,2.9c1.2,1.2,2.2,2.6,2.8,4.2c0.6,1.6,0.9,3.3,0.9,5.1h-4
			c0-1.7-0.3-3.1-0.9-4.4c-0.6-1.2-1.4-2.2-2.4-3c-1-0.8-2.2-1.4-3.5-1.7c-1.3-0.4-2.7-0.6-4.1-0.6c-2.1,0-3.9,0.3-5.4,0.9
			c-1.5,0.6-2.6,1.4-3.5,2.3c-0.9,0.9-1.5,2-1.8,3.1c-0.3,1.2-0.4,2.3-0.2,3.5c0.2,1.4,0.8,2.6,1.7,3.5c0.9,0.9,2,1.6,3.3,2.1
			c1.3,0.6,2.8,1,4.3,1.4c1.6,0.3,3.2,0.7,4.8,1.1c1.6,0.4,3.2,0.9,4.8,1.4c1.5,0.5,2.9,1.3,4.1,2.2c1.2,0.9,2.1,2.1,2.9,3.5
			c0.7,1.4,1.1,3.2,1.1,5.3c0,4.1-1.4,7.3-4.3,9.6c-2.8,2.3-6.8,3.4-12,3.4c-2.3,0-4.4-0.3-6.4-0.9c-2-0.6-3.7-1.5-5.1-2.7
			c-1.4-1.2-2.6-2.7-3.4-4.5c-0.8-1.8-1.2-3.9-1.2-6.3H541z"/>
		<path class="st2" d="M625.6,213.7c-0.9-3.8-2.5-6.5-4.8-8.1c-2.3-1.6-5.4-2.4-9.2-2.4c-2.7,0-5,0.5-6.9,1.6
			c-1.9,1.1-3.5,2.5-4.8,4.3c-1.3,1.8-2.2,3.9-2.8,6.3c-0.6,2.4-0.9,4.9-0.9,7.5c0,2.5,0.3,4.9,0.8,7.3c0.5,2.4,1.4,4.5,2.6,6.4
			c1.2,1.9,2.8,3.4,4.8,4.5c2,1.2,4.5,1.7,7.6,1.7c1.9,0,3.6-0.3,5.2-0.9c1.6-0.6,2.9-1.5,4.1-2.6c1.2-1.1,2.2-2.4,3-3.9
			c0.8-1.5,1.4-3.1,1.8-4.9h4.4c-0.5,2.1-1.2,4.2-2.2,6.1c-0.9,1.9-2.2,3.6-3.7,5c-1.5,1.4-3.4,2.6-5.6,3.4
			c-2.2,0.8-4.8,1.3-7.7,1.3c-3.4,0-6.3-0.6-8.8-1.9c-2.4-1.3-4.4-2.9-5.9-5.1c-1.5-2.1-2.7-4.6-3.4-7.4c-0.7-2.8-1-5.8-1-9
			c0-4.2,0.5-7.8,1.6-10.8c1-3,2.5-5.4,4.3-7.2c1.8-1.9,4-3.2,6.5-4.1c2.5-0.8,5.2-1.3,8.2-1.3c2.3,0,4.4,0.3,6.3,0.9
			c2,0.6,3.7,1.5,5.2,2.7c1.5,1.2,2.7,2.7,3.7,4.4c1,1.7,1.6,3.8,2,6.1H625.6z"/>
		<path class="st2" d="M638.6,245.2v-44.4h4.2v19.1H669v-19.1h4.2v44.4H669v-21.8h-26.3v21.8H638.6z"/>
		<path class="st2" d="M683.1,245.2v-44.4h29.5v3.6h-25.3v16h22.9v3.6h-22.9v17.6h26v3.6H683.1z"/>
		<path class="st2" d="M752.3,213.7c-0.9-3.8-2.5-6.5-4.8-8.1c-2.3-1.6-5.4-2.4-9.2-2.4c-2.7,0-5,0.5-6.9,1.6
			c-1.9,1.1-3.5,2.5-4.8,4.3c-1.3,1.8-2.2,3.9-2.8,6.3c-0.6,2.4-0.9,4.9-0.9,7.5c0,2.5,0.3,4.9,0.8,7.3c0.5,2.4,1.4,4.5,2.6,6.4
			c1.2,1.9,2.8,3.4,4.8,4.5c2,1.2,4.5,1.7,7.6,1.7c1.9,0,3.6-0.3,5.2-0.9c1.6-0.6,2.9-1.5,4.1-2.6c1.2-1.1,2.2-2.4,3-3.9
			c0.8-1.5,1.4-3.1,1.8-4.9h4.4c-0.5,2.1-1.2,4.2-2.2,6.1c-0.9,1.9-2.2,3.6-3.7,5c-1.5,1.4-3.4,2.6-5.6,3.4
			c-2.2,0.8-4.8,1.3-7.7,1.3c-3.4,0-6.3-0.6-8.8-1.9c-2.4-1.3-4.4-2.9-5.9-5.1c-1.5-2.1-2.7-4.6-3.4-7.4c-0.7-2.8-1-5.8-1-9
			c0-4.2,0.5-7.8,1.6-10.8c1-3,2.5-5.4,4.3-7.2c1.8-1.9,4-3.2,6.5-4.1c2.5-0.8,5.2-1.3,8.2-1.3c2.3,0,4.4,0.3,6.3,0.9
			c2,0.6,3.7,1.5,5.2,2.7c1.5,1.2,2.7,2.7,3.7,4.4c1,1.7,1.6,3.8,2,6.1H752.3z"/>
		<path class="st2" d="M765.6,245.2v-44.4h4.2v23l22.8-23h4.7l-17.5,17.7l20.6,26.7h-5.1l-18.5-24.1l-7,7v17.1H765.6z"/>
		<path class="st2" d="M806.5,245.2v-44.4h4.2v40.8h23.8v3.6H806.5z"/>
		<path class="st2" d="M842.2,245.2v-44.4h4.2v44.4H842.2z"/>
		<path class="st2" d="M859.6,231.9c0.2,2,0.6,3.6,1.3,5c0.7,1.4,1.6,2.5,2.8,3.4c1.1,0.9,2.4,1.5,3.9,1.9c1.5,0.4,3.1,0.6,4.7,0.6
			c2,0,3.7-0.2,5.1-0.7c1.4-0.5,2.6-1.2,3.5-2c0.9-0.8,1.6-1.8,2-2.9c0.4-1.1,0.6-2.3,0.6-3.5c0-1.7-0.4-3.1-1.2-4.2
			c-0.8-1.1-1.8-1.9-3.1-2.6c-1.3-0.7-2.7-1.2-4.3-1.6c-1.6-0.4-3.3-0.8-5-1.2c-1.7-0.4-3.4-0.9-5-1.4c-1.6-0.5-3.1-1.3-4.3-2.2
			c-1.3-0.9-2.3-2.1-3.1-3.5c-0.8-1.4-1.2-3.2-1.2-5.4c0-1.5,0.3-3,1-4.4c0.6-1.4,1.6-2.7,2.8-3.8s2.8-2,4.7-2.7
			c1.9-0.7,4.1-1,6.5-1c2.5,0,4.7,0.3,6.6,1c1.9,0.7,3.4,1.7,4.7,2.9c1.2,1.2,2.2,2.6,2.8,4.2c0.6,1.6,0.9,3.3,0.9,5.1h-4
			c0-1.7-0.3-3.1-0.9-4.4c-0.6-1.2-1.4-2.2-2.4-3c-1-0.8-2.2-1.4-3.5-1.7c-1.3-0.4-2.7-0.6-4.1-0.6c-2.1,0-3.9,0.3-5.4,0.9
			c-1.5,0.6-2.6,1.4-3.5,2.3c-0.9,0.9-1.5,2-1.8,3.1c-0.3,1.2-0.4,2.3-0.2,3.5c0.2,1.4,0.8,2.6,1.7,3.5c0.9,0.9,2,1.6,3.3,2.1
			c1.3,0.6,2.8,1,4.3,1.4c1.6,0.3,3.2,0.7,4.8,1.1c1.6,0.4,3.2,0.9,4.8,1.4c1.5,0.5,2.9,1.3,4.1,2.2c1.2,0.9,2.1,2.1,2.9,3.5
			c0.7,1.4,1.1,3.2,1.1,5.3c0,4.1-1.4,7.3-4.3,9.6c-2.8,2.3-6.8,3.4-12,3.4c-2.3,0-4.4-0.3-6.4-0.9c-2-0.6-3.7-1.5-5.1-2.7
			c-1.4-1.2-2.6-2.7-3.4-4.5c-0.8-1.8-1.2-3.9-1.2-6.3H859.6z"/>
		<path class="st2" d="M891.6,200.8h32.3v3.6h-14.1v40.8h-4.2v-40.8h-14.1V200.8z"/>
	</g>
</g>
<path class="st1" d="M144.4,22.3c4.4,0.7,7.3,2.9,7.4,7.7c0.1,4.5-3.6,8.2-7.8,7.7c-4.5-0.5-7.2-3.1-7.1-7.9
	C137,25.1,140,23,144.4,22.3z"/>
</svg>
